<mxfile host="app.diagrams.net" modified="2021-09-07T17:39:49.506Z" agent="5.0 (Windows NT 10.0; Win64; x64) AppleWebKit/537.36 (KHTML, like Gecko) Chrome/93.0.4577.63 Safari/537.36 Edg/93.0.961.38" etag="VooX9UzVqnTwZ3dzhcBi" version="15.1.1" type="github">
  <diagram id="E14xrdEaeWgbvlw4fmTQ" name="Situação-Problema">
    <mxGraphModel dx="2040" dy="2257" grid="0" gridSize="10" guides="1" tooltips="1" connect="1" arrows="1" fold="1" page="0" pageScale="1" pageWidth="827" pageHeight="1169" background="#ffffff" math="0" shadow="0">
      <root>
        <mxCell id="fQxyEo8xfnAtOBqPwO7P-0" />
        <mxCell id="fQxyEo8xfnAtOBqPwO7P-1" parent="fQxyEo8xfnAtOBqPwO7P-0" />
        <mxCell id="fQxyEo8xfnAtOBqPwO7P-6" value="&lt;p style=&quot;text-align: center&quot;&gt;&lt;font size=&quot;1&quot; data-font-src=&quot;https://fonts.googleapis.com/css?family=Indie+Flower&quot; face=&quot;Indie Flower&quot;&gt;&lt;b style=&quot;font-size: 21px&quot;&gt;Você será responsável por escolher qual técnica irá atender os seguintes requisitos:&lt;/b&gt;&lt;/font&gt;&lt;/p&gt;&lt;ul style=&quot;font-size: 18px&quot;&gt;&lt;li&gt;&lt;div style=&quot;text-align: center&quot;&gt;&lt;span&gt;&lt;font data-font-src=&quot;https://fonts.googleapis.com/css?family=Montserrat&quot; style=&quot;font-size: 18px&quot; face=&quot;Montserrat&quot;&gt;Se a data do evento for posterior à data atual, permitir o&lt;/font&gt;&lt;/span&gt;&lt;/div&gt;&lt;font data-font-src=&quot;https://fonts.googleapis.com/css?family=Montserrat&quot; style=&quot;font-size: 18px&quot; face=&quot;Montserrat&quot;&gt;&lt;div style=&quot;text-align: center&quot;&gt;&lt;span&gt;evento; senão, alertar que o cadastro não será permitido por data inválida.&lt;/span&gt;&lt;/div&gt;&lt;/font&gt;&lt;/li&gt;&lt;/ul&gt;&lt;ul style=&quot;font-size: 18px&quot;&gt;&lt;li style=&quot;text-align: center&quot;&gt;&lt;font data-font-src=&quot;https://fonts.googleapis.com/css?family=Montserrat&quot; style=&quot;font-size: 18px&quot; face=&quot;Montserrat&quot;&gt;Se o participante for maior de 18 anos, permitir o cadastro; senão, alertar que o cadastro não é permitido pela idade.&lt;/font&gt;&lt;/li&gt;&lt;/ul&gt;&lt;ul style=&quot;font-size: 18px&quot;&gt;&lt;li style=&quot;text-align: center&quot;&gt;&lt;font data-font-src=&quot;https://fonts.googleapis.com/css?family=Montserrat&quot; style=&quot;font-size: 18px&quot; face=&quot;Montserrat&quot;&gt;Listar participantes e palestrantes por evento.&lt;/font&gt;&lt;/li&gt;&lt;/ul&gt;&lt;ul style=&quot;font-size: 18px&quot;&gt;&lt;li&gt;&lt;div style=&quot;text-align: center&quot;&gt;&lt;span&gt;&lt;font data-font-src=&quot;https://fonts.googleapis.com/css?family=Montserrat&quot; style=&quot;font-size: 18px&quot; face=&quot;Montserrat&quot;&gt;Enquanto a quantidade de participantes for inferior a 100,&lt;/font&gt;&lt;/span&gt;&lt;/div&gt;&lt;font data-font-src=&quot;https://fonts.googleapis.com/css?family=Montserrat&quot; style=&quot;font-size: 18px&quot; face=&quot;Montserrat&quot;&gt;&lt;div style=&quot;text-align: center&quot;&gt;&lt;span&gt;permitir cadastro; senão, alertar que o cadastro não será permitido por ter excedido o limite.&lt;/span&gt;&lt;/div&gt;&lt;/font&gt;&lt;/li&gt;&lt;/ul&gt;&lt;ul style=&quot;font-size: 18px&quot;&gt;&lt;li style=&quot;text-align: center&quot;&gt;&lt;font data-font-src=&quot;https://fonts.googleapis.com/css?family=Montserrat&quot; style=&quot;font-size: 18px&quot; face=&quot;Montserrat&quot;&gt;Criar fluxograma com todos os requisitos que devem ser atendidos pelo sistema.&lt;/font&gt;&lt;/li&gt;&lt;/ul&gt;" style="text;html=1;strokeColor=#d6b656;align=left;verticalAlign=middle;whiteSpace=wrap;rounded=0;shadow=1;gradientDirection=east;gradientColor=#FFFFFF;fillColor=#FFFF99;" parent="fQxyEo8xfnAtOBqPwO7P-1" vertex="1">
          <mxGeometry x="-690" y="-1420.5" width="590" height="461" as="geometry" />
        </mxCell>
        <mxCell id="WSDOC7p3LJNiw7YADk0W-0" value="&lt;h1&gt;&lt;font style=&quot;font-size: 28px&quot; face=&quot;Audiowide&quot; data-font-src=&quot;https://fonts.googleapis.com/css?family=Audiowide&quot;&gt;Situação-Problema&lt;/font&gt;&lt;/h1&gt;" style="shape=callout;whiteSpace=wrap;html=1;perimeter=calloutPerimeter;fillColor=#f8cecc;strokeColor=#b85450;rounded=1;shadow=1;" parent="fQxyEo8xfnAtOBqPwO7P-1" vertex="1">
          <mxGeometry x="-250" y="-1540" width="270" height="170" as="geometry" />
        </mxCell>
        <mxCell id="WSDOC7p3LJNiw7YADk0W-4" style="edgeStyle=orthogonalEdgeStyle;rounded=0;orthogonalLoop=1;jettySize=auto;html=1;entryX=0.5;entryY=0;entryDx=0;entryDy=0;" parent="fQxyEo8xfnAtOBqPwO7P-1" source="WSDOC7p3LJNiw7YADk0W-1" target="WSDOC7p3LJNiw7YADk0W-5" edge="1">
          <mxGeometry relative="1" as="geometry">
            <mxPoint x="250" y="-1260" as="targetPoint" />
          </mxGeometry>
        </mxCell>
        <mxCell id="WSDOC7p3LJNiw7YADk0W-1" value="Início" style="strokeWidth=2;html=1;shape=mxgraph.flowchart.terminator;whiteSpace=wrap;rounded=0;shadow=1;fillColor=#FFFF99;gradientColor=#FFFFFF;gradientDirection=east;" parent="fQxyEo8xfnAtOBqPwO7P-1" vertex="1">
          <mxGeometry x="190" y="-1380" width="120" height="50" as="geometry" />
        </mxCell>
        <mxCell id="WSDOC7p3LJNiw7YADk0W-19" style="edgeStyle=orthogonalEdgeStyle;rounded=0;orthogonalLoop=1;jettySize=auto;html=1;entryX=0;entryY=0.5;entryDx=0;entryDy=0;" parent="fQxyEo8xfnAtOBqPwO7P-1" source="WSDOC7p3LJNiw7YADk0W-2" target="WSDOC7p3LJNiw7YADk0W-15" edge="1">
          <mxGeometry relative="1" as="geometry" />
        </mxCell>
        <mxCell id="WSDOC7p3LJNiw7YADk0W-2" value="Insira dataEvento" style="html=1;strokeWidth=2;shape=manualInput;whiteSpace=wrap;rounded=1;size=26;arcSize=11;shadow=1;fillColor=#FFFF99;gradientColor=#FFFFFF;gradientDirection=east;" parent="fQxyEo8xfnAtOBqPwO7P-1" vertex="1">
          <mxGeometry x="525" y="-979.5" width="120" height="70" as="geometry" />
        </mxCell>
        <mxCell id="WSDOC7p3LJNiw7YADk0W-7" style="edgeStyle=orthogonalEdgeStyle;rounded=0;orthogonalLoop=1;jettySize=auto;html=1;entryX=0.5;entryY=0;entryDx=0;entryDy=0;" parent="fQxyEo8xfnAtOBqPwO7P-1" source="WSDOC7p3LJNiw7YADk0W-5" target="WSDOC7p3LJNiw7YADk0W-6" edge="1">
          <mxGeometry relative="1" as="geometry" />
        </mxCell>
        <mxCell id="WSDOC7p3LJNiw7YADk0W-5" value="&lt;p style=&quot;line-height: 120%&quot;&gt;&lt;/p&gt;&lt;div style=&quot;line-height: 120%&quot;&gt;Real idade&lt;/div&gt;&lt;p&gt;&lt;/p&gt;" style="shape=internalStorage;whiteSpace=wrap;html=1;dx=15;dy=15;rounded=1;arcSize=8;strokeWidth=2;shadow=1;fillColor=#FFFF99;gradientColor=#FFFFFF;gradientDirection=east;align=center;" parent="fQxyEo8xfnAtOBqPwO7P-1" vertex="1">
          <mxGeometry x="170" y="-1280" width="160" height="70" as="geometry" />
        </mxCell>
        <mxCell id="WSDOC7p3LJNiw7YADk0W-9" style="edgeStyle=orthogonalEdgeStyle;rounded=0;orthogonalLoop=1;jettySize=auto;html=1;" parent="fQxyEo8xfnAtOBqPwO7P-1" source="WSDOC7p3LJNiw7YADk0W-6" target="WSDOC7p3LJNiw7YADk0W-8" edge="1">
          <mxGeometry relative="1" as="geometry" />
        </mxCell>
        <mxCell id="WSDOC7p3LJNiw7YADk0W-6" value="&lt;p style=&quot;line-height: 120%&quot;&gt;&lt;/p&gt;&lt;div style=&quot;line-height: 120%&quot;&gt;Caracteres&amp;nbsp;&lt;span&gt;dataEvento&lt;/span&gt;&lt;/div&gt;&lt;p&gt;&lt;/p&gt;" style="shape=internalStorage;whiteSpace=wrap;html=1;dx=15;dy=15;rounded=1;arcSize=8;strokeWidth=2;shadow=1;fillColor=#FFFF99;gradientColor=#FFFFFF;gradientDirection=east;align=center;" parent="fQxyEo8xfnAtOBqPwO7P-1" vertex="1">
          <mxGeometry x="170" y="-1160" width="160" height="70" as="geometry" />
        </mxCell>
        <mxCell id="WSDOC7p3LJNiw7YADk0W-11" style="edgeStyle=orthogonalEdgeStyle;rounded=0;orthogonalLoop=1;jettySize=auto;html=1;" parent="fQxyEo8xfnAtOBqPwO7P-1" source="WSDOC7p3LJNiw7YADk0W-8" target="WSDOC7p3LJNiw7YADk0W-10" edge="1">
          <mxGeometry relative="1" as="geometry" />
        </mxCell>
        <mxCell id="WSDOC7p3LJNiw7YADk0W-8" value="&lt;p style=&quot;line-height: 90%&quot;&gt;dataAtual&lt;/p&gt;" style="strokeWidth=2;html=1;shape=mxgraph.flowchart.database;whiteSpace=wrap;rounded=0;shadow=1;fillColor=#FFFF99;gradientColor=#FFFFFF;gradientDirection=east;" parent="fQxyEo8xfnAtOBqPwO7P-1" vertex="1">
          <mxGeometry x="205" y="-1050" width="90" height="50" as="geometry" />
        </mxCell>
        <mxCell id="MoJu4bdm5zdiFwNMEZ7Q-4" value="" style="edgeStyle=orthogonalEdgeStyle;rounded=0;orthogonalLoop=1;jettySize=auto;html=1;" edge="1" parent="fQxyEo8xfnAtOBqPwO7P-1" source="WSDOC7p3LJNiw7YADk0W-10" target="MoJu4bdm5zdiFwNMEZ7Q-3">
          <mxGeometry relative="1" as="geometry" />
        </mxCell>
        <mxCell id="WSDOC7p3LJNiw7YADk0W-10" value="&lt;p style=&quot;line-height: 90%&quot;&gt;qtdParticipantes&lt;/p&gt;" style="strokeWidth=2;html=1;shape=mxgraph.flowchart.database;whiteSpace=wrap;rounded=0;shadow=1;fillColor=#FFFF99;gradientColor=#FFFFFF;gradientDirection=east;" parent="fQxyEo8xfnAtOBqPwO7P-1" vertex="1">
          <mxGeometry x="202.5" y="-959.5" width="95" height="50" as="geometry" />
        </mxCell>
        <mxCell id="WSDOC7p3LJNiw7YADk0W-24" value="" style="edgeStyle=orthogonalEdgeStyle;rounded=0;orthogonalLoop=1;jettySize=auto;html=1;" parent="fQxyEo8xfnAtOBqPwO7P-1" source="WSDOC7p3LJNiw7YADk0W-14" target="WSDOC7p3LJNiw7YADk0W-23" edge="1">
          <mxGeometry relative="1" as="geometry" />
        </mxCell>
        <mxCell id="WSDOC7p3LJNiw7YADk0W-38" style="edgeStyle=orthogonalEdgeStyle;rounded=0;orthogonalLoop=1;jettySize=auto;html=1;entryX=0.5;entryY=1;entryDx=0;entryDy=0;" parent="fQxyEo8xfnAtOBqPwO7P-1" source="WSDOC7p3LJNiw7YADk0W-14" target="WSDOC7p3LJNiw7YADk0W-37" edge="1">
          <mxGeometry relative="1" as="geometry" />
        </mxCell>
        <mxCell id="WSDOC7p3LJNiw7YADk0W-14" value="dataEvento &amp;gt;= dataAtual&amp;nbsp;" style="strokeWidth=2;html=1;shape=mxgraph.flowchart.decision;whiteSpace=wrap;rounded=0;shadow=1;fillColor=#FFFF99;gradientColor=#FFFFFF;gradientDirection=east;" parent="fQxyEo8xfnAtOBqPwO7P-1" vertex="1">
          <mxGeometry x="884" y="-905" width="180" height="95.5" as="geometry" />
        </mxCell>
        <mxCell id="MoJu4bdm5zdiFwNMEZ7Q-9" value="" style="edgeStyle=orthogonalEdgeStyle;rounded=0;orthogonalLoop=1;jettySize=auto;html=1;" edge="1" parent="fQxyEo8xfnAtOBqPwO7P-1" source="WSDOC7p3LJNiw7YADk0W-15" target="MoJu4bdm5zdiFwNMEZ7Q-8">
          <mxGeometry relative="1" as="geometry" />
        </mxCell>
        <mxCell id="WSDOC7p3LJNiw7YADk0W-15" value="&lt;div&gt;&lt;span&gt;dataEvento&lt;/span&gt;&lt;/div&gt;" style="shape=parallelogram;html=1;strokeWidth=2;perimeter=parallelogramPerimeter;whiteSpace=wrap;rounded=1;arcSize=12;size=0.23;shadow=1;fillColor=#FFFF99;gradientColor=#FFFFFF;gradientDirection=east;align=center;" parent="fQxyEo8xfnAtOBqPwO7P-1" vertex="1">
          <mxGeometry x="673" y="-974.5" width="171" height="60" as="geometry" />
        </mxCell>
        <mxCell id="MoJu4bdm5zdiFwNMEZ7Q-34" style="edgeStyle=orthogonalEdgeStyle;rounded=0;orthogonalLoop=1;jettySize=auto;html=1;entryX=0;entryY=0.5;entryDx=0;entryDy=0;entryPerimeter=0;" edge="1" parent="fQxyEo8xfnAtOBqPwO7P-1" source="WSDOC7p3LJNiw7YADk0W-23" target="MoJu4bdm5zdiFwNMEZ7Q-33">
          <mxGeometry relative="1" as="geometry" />
        </mxCell>
        <mxCell id="WSDOC7p3LJNiw7YADk0W-23" value="Data inválida, cadastro&lt;br&gt;não efetuado." style="whiteSpace=wrap;html=1;rounded=0;shadow=1;strokeWidth=2;fillColor=#FFFF99;gradientColor=#FFFFFF;gradientDirection=east;" parent="fQxyEo8xfnAtOBqPwO7P-1" vertex="1">
          <mxGeometry x="1175" y="-990" width="150" height="90" as="geometry" />
        </mxCell>
        <mxCell id="WSDOC7p3LJNiw7YADk0W-25" value="NÃO" style="text;html=1;strokeColor=none;fillColor=none;align=center;verticalAlign=middle;whiteSpace=wrap;rounded=0;shadow=1;" parent="fQxyEo8xfnAtOBqPwO7P-1" vertex="1">
          <mxGeometry x="1078" y="-927" width="40" height="20" as="geometry" />
        </mxCell>
        <mxCell id="WSDOC7p3LJNiw7YADk0W-28" value="SIM" style="text;html=1;strokeColor=none;fillColor=none;align=center;verticalAlign=middle;whiteSpace=wrap;rounded=0;shadow=1;" parent="fQxyEo8xfnAtOBqPwO7P-1" vertex="1">
          <mxGeometry x="935" y="-940" width="40" height="20" as="geometry" />
        </mxCell>
        <mxCell id="MoJu4bdm5zdiFwNMEZ7Q-1" value="" style="edgeStyle=orthogonalEdgeStyle;rounded=0;orthogonalLoop=1;jettySize=auto;html=1;exitX=0.507;exitY=0.193;exitDx=0;exitDy=0;exitPerimeter=0;" edge="1" parent="fQxyEo8xfnAtOBqPwO7P-1" source="WSDOC7p3LJNiw7YADk0W-37" target="MoJu4bdm5zdiFwNMEZ7Q-0">
          <mxGeometry relative="1" as="geometry" />
        </mxCell>
        <mxCell id="WSDOC7p3LJNiw7YADk0W-37" value="Insira idade" style="html=1;strokeWidth=2;shape=manualInput;whiteSpace=wrap;rounded=1;size=26;arcSize=11;shadow=1;fillColor=#FFFF99;gradientColor=#FFFFFF;gradientDirection=east;" parent="fQxyEo8xfnAtOBqPwO7P-1" vertex="1">
          <mxGeometry x="904" y="-1029.5" width="140" height="70" as="geometry" />
        </mxCell>
        <mxCell id="WSDOC7p3LJNiw7YADk0W-42" value="" style="edgeStyle=orthogonalEdgeStyle;rounded=0;orthogonalLoop=1;jettySize=auto;html=1;" parent="fQxyEo8xfnAtOBqPwO7P-1" source="WSDOC7p3LJNiw7YADk0W-39" target="WSDOC7p3LJNiw7YADk0W-41" edge="1">
          <mxGeometry relative="1" as="geometry" />
        </mxCell>
        <mxCell id="WSDOC7p3LJNiw7YADk0W-47" value="" style="edgeStyle=orthogonalEdgeStyle;rounded=0;orthogonalLoop=1;jettySize=auto;html=1;" parent="fQxyEo8xfnAtOBqPwO7P-1" source="WSDOC7p3LJNiw7YADk0W-39" target="WSDOC7p3LJNiw7YADk0W-46" edge="1">
          <mxGeometry relative="1" as="geometry" />
        </mxCell>
        <mxCell id="WSDOC7p3LJNiw7YADk0W-39" value="idade &amp;gt;= 18" style="rhombus;whiteSpace=wrap;html=1;rounded=1;shadow=1;strokeWidth=2;fillColor=#FFFF99;gradientColor=#FFFFFF;gradientDirection=east;arcSize=11;" parent="fQxyEo8xfnAtOBqPwO7P-1" vertex="1">
          <mxGeometry x="885" y="-1280" width="180" height="80" as="geometry" />
        </mxCell>
        <mxCell id="MoJu4bdm5zdiFwNMEZ7Q-39" style="edgeStyle=orthogonalEdgeStyle;rounded=0;orthogonalLoop=1;jettySize=auto;html=1;entryX=0.5;entryY=0;entryDx=0;entryDy=0;entryPerimeter=0;" edge="1" parent="fQxyEo8xfnAtOBqPwO7P-1" source="WSDOC7p3LJNiw7YADk0W-41" target="MoJu4bdm5zdiFwNMEZ7Q-38">
          <mxGeometry relative="1" as="geometry" />
        </mxCell>
        <mxCell id="WSDOC7p3LJNiw7YADk0W-41" value="Idade inválida, cadastro não efetuado." style="whiteSpace=wrap;html=1;rounded=1;shadow=1;strokeWidth=2;fillColor=#FFFF99;gradientColor=#FFFFFF;gradientDirection=east;arcSize=11;" parent="fQxyEo8xfnAtOBqPwO7P-1" vertex="1">
          <mxGeometry x="635" y="-1280" width="140" height="80" as="geometry" />
        </mxCell>
        <mxCell id="WSDOC7p3LJNiw7YADk0W-43" value="NÃO" style="text;html=1;strokeColor=none;fillColor=none;align=center;verticalAlign=middle;whiteSpace=wrap;rounded=0;shadow=1;" parent="fQxyEo8xfnAtOBqPwO7P-1" vertex="1">
          <mxGeometry x="815" y="-1270" width="40" height="20" as="geometry" />
        </mxCell>
        <mxCell id="WSDOC7p3LJNiw7YADk0W-50" value="" style="edgeStyle=orthogonalEdgeStyle;rounded=0;orthogonalLoop=1;jettySize=auto;html=1;" parent="fQxyEo8xfnAtOBqPwO7P-1" source="WSDOC7p3LJNiw7YADk0W-46" target="WSDOC7p3LJNiw7YADk0W-49" edge="1">
          <mxGeometry relative="1" as="geometry" />
        </mxCell>
        <mxCell id="WSDOC7p3LJNiw7YADk0W-46" value="qtdParticipantes =&amp;nbsp;&lt;br&gt;idEvento.qtdParticipantes" style="shape=parallelogram;perimeter=parallelogramPerimeter;whiteSpace=wrap;html=1;fixedSize=1;rounded=1;shadow=1;strokeWidth=2;fillColor=#FFFF99;gradientColor=#FFFFFF;gradientDirection=east;arcSize=11;" parent="fQxyEo8xfnAtOBqPwO7P-1" vertex="1">
          <mxGeometry x="883" y="-1440" width="184" height="81" as="geometry" />
        </mxCell>
        <mxCell id="WSDOC7p3LJNiw7YADk0W-48" value="SIM" style="text;html=1;strokeColor=none;fillColor=none;align=center;verticalAlign=middle;whiteSpace=wrap;rounded=0;shadow=1;" parent="fQxyEo8xfnAtOBqPwO7P-1" vertex="1">
          <mxGeometry x="935" y="-1340" width="40" height="20" as="geometry" />
        </mxCell>
        <mxCell id="WSDOC7p3LJNiw7YADk0W-52" value="" style="edgeStyle=orthogonalEdgeStyle;rounded=0;orthogonalLoop=1;jettySize=auto;html=1;" parent="fQxyEo8xfnAtOBqPwO7P-1" source="WSDOC7p3LJNiw7YADk0W-49" target="WSDOC7p3LJNiw7YADk0W-51" edge="1">
          <mxGeometry relative="1" as="geometry" />
        </mxCell>
        <mxCell id="WSDOC7p3LJNiw7YADk0W-57" value="" style="edgeStyle=orthogonalEdgeStyle;rounded=0;orthogonalLoop=1;jettySize=auto;html=1;" parent="fQxyEo8xfnAtOBqPwO7P-1" source="WSDOC7p3LJNiw7YADk0W-49" target="WSDOC7p3LJNiw7YADk0W-56" edge="1">
          <mxGeometry relative="1" as="geometry" />
        </mxCell>
        <mxCell id="WSDOC7p3LJNiw7YADk0W-49" value="qtdParticipantes &amp;lt; 100" style="rhombus;whiteSpace=wrap;html=1;rounded=1;shadow=1;strokeWidth=2;fillColor=#FFFF99;gradientColor=#FFFFFF;gradientDirection=east;arcSize=11;" parent="fQxyEo8xfnAtOBqPwO7P-1" vertex="1">
          <mxGeometry x="1135" y="-1440" width="180" height="80" as="geometry" />
        </mxCell>
        <mxCell id="MoJu4bdm5zdiFwNMEZ7Q-43" style="edgeStyle=orthogonalEdgeStyle;rounded=0;orthogonalLoop=1;jettySize=auto;html=1;entryX=0.5;entryY=0;entryDx=0;entryDy=0;entryPerimeter=0;" edge="1" parent="fQxyEo8xfnAtOBqPwO7P-1" source="WSDOC7p3LJNiw7YADk0W-51" target="MoJu4bdm5zdiFwNMEZ7Q-42">
          <mxGeometry relative="1" as="geometry" />
        </mxCell>
        <mxCell id="WSDOC7p3LJNiw7YADk0W-51" value="Capacidade máxima de participantes atingida, cadastro não efetuado." style="whiteSpace=wrap;html=1;rounded=1;shadow=1;strokeWidth=2;fillColor=#FFFF99;gradientColor=#FFFFFF;gradientDirection=east;arcSize=11;" parent="fQxyEo8xfnAtOBqPwO7P-1" vertex="1">
          <mxGeometry x="1145" y="-1270" width="160" height="80" as="geometry" />
        </mxCell>
        <mxCell id="WSDOC7p3LJNiw7YADk0W-53" value="NÃO" style="text;html=1;strokeColor=none;fillColor=none;align=center;verticalAlign=middle;whiteSpace=wrap;rounded=0;shadow=1;" parent="fQxyEo8xfnAtOBqPwO7P-1" vertex="1">
          <mxGeometry x="1185" y="-1330" width="40" height="20" as="geometry" />
        </mxCell>
        <mxCell id="MoJu4bdm5zdiFwNMEZ7Q-47" style="edgeStyle=orthogonalEdgeStyle;rounded=0;orthogonalLoop=1;jettySize=auto;html=1;entryX=0;entryY=0.5;entryDx=0;entryDy=0;entryPerimeter=0;fontSize=10;" edge="1" parent="fQxyEo8xfnAtOBqPwO7P-1" source="WSDOC7p3LJNiw7YADk0W-56" target="MoJu4bdm5zdiFwNMEZ7Q-46">
          <mxGeometry relative="1" as="geometry" />
        </mxCell>
        <mxCell id="WSDOC7p3LJNiw7YADk0W-56" value="Cadastro efetuado com sucesso!" style="whiteSpace=wrap;html=1;rounded=1;shadow=1;strokeWidth=2;fillColor=#FFFF99;gradientColor=#FFFFFF;gradientDirection=east;arcSize=11;" parent="fQxyEo8xfnAtOBqPwO7P-1" vertex="1">
          <mxGeometry x="1425" y="-1430" width="120" height="60" as="geometry" />
        </mxCell>
        <mxCell id="WSDOC7p3LJNiw7YADk0W-58" value="SIM" style="text;html=1;strokeColor=none;fillColor=none;align=center;verticalAlign=middle;whiteSpace=wrap;rounded=0;shadow=1;" parent="fQxyEo8xfnAtOBqPwO7P-1" vertex="1">
          <mxGeometry x="1345" y="-1420.5" width="40" height="20" as="geometry" />
        </mxCell>
        <mxCell id="MoJu4bdm5zdiFwNMEZ7Q-2" style="edgeStyle=orthogonalEdgeStyle;rounded=0;orthogonalLoop=1;jettySize=auto;html=1;entryX=0.5;entryY=1;entryDx=0;entryDy=0;" edge="1" parent="fQxyEo8xfnAtOBqPwO7P-1" source="MoJu4bdm5zdiFwNMEZ7Q-0" target="WSDOC7p3LJNiw7YADk0W-39">
          <mxGeometry relative="1" as="geometry" />
        </mxCell>
        <mxCell id="MoJu4bdm5zdiFwNMEZ7Q-0" value="idade" style="shape=parallelogram;perimeter=parallelogramPerimeter;whiteSpace=wrap;html=1;fixedSize=1;rounded=1;shadow=1;strokeWidth=2;fillColor=#FFFF99;gradientColor=#FFFFFF;gradientDirection=east;arcSize=11;" vertex="1" parent="fQxyEo8xfnAtOBqPwO7P-1">
          <mxGeometry x="915" y="-1132" width="120" height="60" as="geometry" />
        </mxCell>
        <mxCell id="MoJu4bdm5zdiFwNMEZ7Q-5" style="edgeStyle=orthogonalEdgeStyle;rounded=0;orthogonalLoop=1;jettySize=auto;html=1;entryX=0.017;entryY=0.636;entryDx=0;entryDy=0;entryPerimeter=0;" edge="1" parent="fQxyEo8xfnAtOBqPwO7P-1" source="MoJu4bdm5zdiFwNMEZ7Q-3" target="WSDOC7p3LJNiw7YADk0W-2">
          <mxGeometry relative="1" as="geometry" />
        </mxCell>
        <mxCell id="MoJu4bdm5zdiFwNMEZ7Q-3" value="&lt;p style=&quot;line-height: 90%&quot;&gt;idEvento&lt;/p&gt;" style="strokeWidth=2;html=1;shape=mxgraph.flowchart.database;whiteSpace=wrap;rounded=0;shadow=1;fillColor=#FFFF99;gradientColor=#FFFFFF;gradientDirection=east;" vertex="1" parent="fQxyEo8xfnAtOBqPwO7P-1">
          <mxGeometry x="349" y="-959.5" width="95" height="50" as="geometry" />
        </mxCell>
        <mxCell id="MoJu4bdm5zdiFwNMEZ7Q-11" value="" style="edgeStyle=orthogonalEdgeStyle;rounded=0;orthogonalLoop=1;jettySize=auto;html=1;" edge="1" parent="fQxyEo8xfnAtOBqPwO7P-1" source="MoJu4bdm5zdiFwNMEZ7Q-8" target="MoJu4bdm5zdiFwNMEZ7Q-10">
          <mxGeometry relative="1" as="geometry" />
        </mxCell>
        <mxCell id="MoJu4bdm5zdiFwNMEZ7Q-8" value="idEvento" style="shape=parallelogram;perimeter=parallelogramPerimeter;whiteSpace=wrap;html=1;fixedSize=1;rounded=1;shadow=1;strokeWidth=2;fillColor=#FFFF99;gradientColor=#FFFFFF;gradientDirection=east;arcSize=12;" vertex="1" parent="fQxyEo8xfnAtOBqPwO7P-1">
          <mxGeometry x="698.5" y="-834.5" width="120" height="60" as="geometry" />
        </mxCell>
        <mxCell id="MoJu4bdm5zdiFwNMEZ7Q-17" style="edgeStyle=orthogonalEdgeStyle;rounded=0;orthogonalLoop=1;jettySize=auto;html=1;exitX=1;exitY=0.5;exitDx=0;exitDy=0;entryX=0;entryY=0.5;entryDx=0;entryDy=0;entryPerimeter=0;" edge="1" parent="fQxyEo8xfnAtOBqPwO7P-1" source="MoJu4bdm5zdiFwNMEZ7Q-10" target="WSDOC7p3LJNiw7YADk0W-14">
          <mxGeometry relative="1" as="geometry" />
        </mxCell>
        <mxCell id="MoJu4bdm5zdiFwNMEZ7Q-22" style="edgeStyle=orthogonalEdgeStyle;rounded=0;orthogonalLoop=1;jettySize=auto;html=1;entryX=0;entryY=0.5;entryDx=0;entryDy=0;" edge="1" parent="fQxyEo8xfnAtOBqPwO7P-1" source="MoJu4bdm5zdiFwNMEZ7Q-10" target="MoJu4bdm5zdiFwNMEZ7Q-18">
          <mxGeometry relative="1" as="geometry" />
        </mxCell>
        <mxCell id="MoJu4bdm5zdiFwNMEZ7Q-10" value="dataEvento =&lt;br&gt;idEvento.dataEvento" style="rhombus;whiteSpace=wrap;html=1;rounded=1;shadow=1;strokeWidth=2;fillColor=#FFFF99;gradientColor=#FFFFFF;gradientDirection=east;arcSize=12;" vertex="1" parent="fQxyEo8xfnAtOBqPwO7P-1">
          <mxGeometry x="641" y="-704.5" width="234" height="80" as="geometry" />
        </mxCell>
        <mxCell id="MoJu4bdm5zdiFwNMEZ7Q-30" value="" style="edgeStyle=orthogonalEdgeStyle;rounded=0;orthogonalLoop=1;jettySize=auto;html=1;" edge="1" parent="fQxyEo8xfnAtOBqPwO7P-1" source="MoJu4bdm5zdiFwNMEZ7Q-18" target="MoJu4bdm5zdiFwNMEZ7Q-29">
          <mxGeometry relative="1" as="geometry" />
        </mxCell>
        <mxCell id="MoJu4bdm5zdiFwNMEZ7Q-18" value="Novo Evento = new idEvento" style="whiteSpace=wrap;html=1;rounded=1;shadow=1;strokeWidth=2;fillColor=#FFFF99;gradientColor=#FFFFFF;gradientDirection=east;arcSize=12;" vertex="1" parent="fQxyEo8xfnAtOBqPwO7P-1">
          <mxGeometry x="872" y="-578" width="120" height="60" as="geometry" />
        </mxCell>
        <mxCell id="MoJu4bdm5zdiFwNMEZ7Q-23" value="NÃO" style="text;html=1;strokeColor=none;fillColor=none;align=center;verticalAlign=middle;whiteSpace=wrap;rounded=0;shadow=1;" vertex="1" parent="fQxyEo8xfnAtOBqPwO7P-1">
          <mxGeometry x="716" y="-598" width="40" height="20" as="geometry" />
        </mxCell>
        <mxCell id="MoJu4bdm5zdiFwNMEZ7Q-24" value="SIM" style="text;html=1;strokeColor=none;fillColor=none;align=center;verticalAlign=middle;whiteSpace=wrap;rounded=0;shadow=1;" vertex="1" parent="fQxyEo8xfnAtOBqPwO7P-1">
          <mxGeometry x="855" y="-756" width="40" height="20" as="geometry" />
        </mxCell>
        <mxCell id="MoJu4bdm5zdiFwNMEZ7Q-25" value="" style="endArrow=none;dashed=1;html=1;" edge="1" parent="fQxyEo8xfnAtOBqPwO7P-1">
          <mxGeometry width="50" height="50" relative="1" as="geometry">
            <mxPoint x="132" y="-824" as="sourcePoint" />
            <mxPoint x="202.5" y="-1029.5" as="targetPoint" />
          </mxGeometry>
        </mxCell>
        <mxCell id="MoJu4bdm5zdiFwNMEZ7Q-26" value="" style="endArrow=none;dashed=1;html=1;" edge="1" parent="fQxyEo8xfnAtOBqPwO7P-1">
          <mxGeometry width="50" height="50" relative="1" as="geometry">
            <mxPoint x="134" y="-821" as="sourcePoint" />
            <mxPoint x="442" y="-914" as="targetPoint" />
          </mxGeometry>
        </mxCell>
        <mxCell id="MoJu4bdm5zdiFwNMEZ7Q-27" value="" style="endArrow=none;dashed=1;html=1;" edge="1" parent="fQxyEo8xfnAtOBqPwO7P-1">
          <mxGeometry width="50" height="50" relative="1" as="geometry">
            <mxPoint x="134" y="-824" as="sourcePoint" />
            <mxPoint x="211" y="-914.5" as="targetPoint" />
          </mxGeometry>
        </mxCell>
        <mxCell id="MoJu4bdm5zdiFwNMEZ7Q-28" value="&lt;h1&gt;Banco de dados&lt;/h1&gt;&lt;p&gt;Os registros representam dados contidos em um único banco de dados relacionado ao evento, os campos separados representam apenas os valores utilizados para a comparação&lt;/p&gt;" style="text;html=1;spacing=5;spacingTop=-20;whiteSpace=wrap;overflow=hidden;rounded=0;rotation=0;glass=0;shadow=1;sketch=0;gradientColor=#ffffff;fillColor=#FFFF99;gradientDirection=east;strokeColor=#000000;perimeterSpacing=15;opacity=90;" vertex="1" parent="fQxyEo8xfnAtOBqPwO7P-1">
          <mxGeometry x="-0.5" y="-822" width="203" height="137" as="geometry" />
        </mxCell>
        <mxCell id="MoJu4bdm5zdiFwNMEZ7Q-31" style="edgeStyle=orthogonalEdgeStyle;rounded=0;orthogonalLoop=1;jettySize=auto;html=1;entryX=0.5;entryY=1;entryDx=0;entryDy=0;entryPerimeter=0;" edge="1" parent="fQxyEo8xfnAtOBqPwO7P-1" source="MoJu4bdm5zdiFwNMEZ7Q-29" target="WSDOC7p3LJNiw7YADk0W-14">
          <mxGeometry relative="1" as="geometry" />
        </mxCell>
        <mxCell id="MoJu4bdm5zdiFwNMEZ7Q-29" value="idEvento" style="shape=parallelogram;perimeter=parallelogramPerimeter;whiteSpace=wrap;html=1;fixedSize=1;rounded=1;shadow=1;strokeWidth=2;fillColor=#FFFF99;gradientColor=#FFFFFF;gradientDirection=east;arcSize=12;" vertex="1" parent="fQxyEo8xfnAtOBqPwO7P-1">
          <mxGeometry x="998" y="-694.5" width="120" height="60" as="geometry" />
        </mxCell>
        <mxCell id="MoJu4bdm5zdiFwNMEZ7Q-37" value="" style="edgeStyle=orthogonalEdgeStyle;rounded=0;orthogonalLoop=1;jettySize=auto;html=1;" edge="1" parent="fQxyEo8xfnAtOBqPwO7P-1" source="MoJu4bdm5zdiFwNMEZ7Q-33" target="MoJu4bdm5zdiFwNMEZ7Q-36">
          <mxGeometry relative="1" as="geometry" />
        </mxCell>
        <mxCell id="MoJu4bdm5zdiFwNMEZ7Q-33" value="DELETE from eventos WHERE idEvento = this.{idEvento}" style="strokeWidth=2;html=1;shape=mxgraph.flowchart.database;whiteSpace=wrap;rounded=0;shadow=1;glass=0;sketch=0;fillColor=#FFFF99;gradientColor=#ffffff;gradientDirection=east;opacity=90;spacingTop=14;" vertex="1" parent="fQxyEo8xfnAtOBqPwO7P-1">
          <mxGeometry x="1427" y="-988" width="173" height="86" as="geometry" />
        </mxCell>
        <mxCell id="MoJu4bdm5zdiFwNMEZ7Q-36" value="Fim" style="ellipse;whiteSpace=wrap;html=1;rounded=0;shadow=1;strokeWidth=2;fillColor=#FFFF99;gradientColor=#ffffff;gradientDirection=east;glass=0;opacity=90;sketch=0;" vertex="1" parent="fQxyEo8xfnAtOBqPwO7P-1">
          <mxGeometry x="1706.5" y="-975" width="120" height="60" as="geometry" />
        </mxCell>
        <mxCell id="MoJu4bdm5zdiFwNMEZ7Q-41" value="" style="edgeStyle=orthogonalEdgeStyle;rounded=0;orthogonalLoop=1;jettySize=auto;html=1;" edge="1" parent="fQxyEo8xfnAtOBqPwO7P-1" source="MoJu4bdm5zdiFwNMEZ7Q-38" target="MoJu4bdm5zdiFwNMEZ7Q-40">
          <mxGeometry relative="1" as="geometry" />
        </mxCell>
        <mxCell id="MoJu4bdm5zdiFwNMEZ7Q-38" value="DELETE from eventos WHERE idEvento = this.{idEvento}" style="strokeWidth=2;html=1;shape=mxgraph.flowchart.database;whiteSpace=wrap;rounded=0;shadow=1;glass=0;sketch=0;fillColor=#FFFF99;gradientColor=#ffffff;gradientDirection=east;opacity=90;spacingTop=12;" vertex="1" parent="fQxyEo8xfnAtOBqPwO7P-1">
          <mxGeometry x="618.5" y="-1109" width="173" height="86" as="geometry" />
        </mxCell>
        <mxCell id="MoJu4bdm5zdiFwNMEZ7Q-40" value="Fim" style="ellipse;whiteSpace=wrap;html=1;rounded=0;shadow=1;strokeWidth=2;fillColor=#FFFF99;gradientColor=#ffffff;gradientDirection=east;glass=0;opacity=90;sketch=0;" vertex="1" parent="fQxyEo8xfnAtOBqPwO7P-1">
          <mxGeometry x="392" y="-1096" width="120" height="60" as="geometry" />
        </mxCell>
        <mxCell id="MoJu4bdm5zdiFwNMEZ7Q-45" value="" style="edgeStyle=orthogonalEdgeStyle;rounded=0;orthogonalLoop=1;jettySize=auto;html=1;" edge="1" parent="fQxyEo8xfnAtOBqPwO7P-1" source="MoJu4bdm5zdiFwNMEZ7Q-42" target="MoJu4bdm5zdiFwNMEZ7Q-44">
          <mxGeometry relative="1" as="geometry" />
        </mxCell>
        <mxCell id="MoJu4bdm5zdiFwNMEZ7Q-42" value="DELETE from eventos WHERE idEvento = this.{idEvento}" style="strokeWidth=2;html=1;shape=mxgraph.flowchart.database;whiteSpace=wrap;rounded=0;shadow=1;glass=0;sketch=0;fillColor=#FFFF99;gradientColor=#ffffff;gradientDirection=east;opacity=90;spacingTop=15;" vertex="1" parent="fQxyEo8xfnAtOBqPwO7P-1">
          <mxGeometry x="1138.5" y="-1132" width="173" height="86" as="geometry" />
        </mxCell>
        <mxCell id="MoJu4bdm5zdiFwNMEZ7Q-44" value="Fim" style="ellipse;whiteSpace=wrap;html=1;rounded=0;shadow=1;strokeWidth=2;fillColor=#FFFF99;gradientColor=#ffffff;gradientDirection=east;glass=0;opacity=90;sketch=0;" vertex="1" parent="fQxyEo8xfnAtOBqPwO7P-1">
          <mxGeometry x="1418" y="-1119" width="120" height="60" as="geometry" />
        </mxCell>
        <mxCell id="MoJu4bdm5zdiFwNMEZ7Q-49" value="" style="edgeStyle=orthogonalEdgeStyle;rounded=0;orthogonalLoop=1;jettySize=auto;html=1;fontSize=10;" edge="1" parent="fQxyEo8xfnAtOBqPwO7P-1" source="MoJu4bdm5zdiFwNMEZ7Q-46" target="MoJu4bdm5zdiFwNMEZ7Q-48">
          <mxGeometry relative="1" as="geometry" />
        </mxCell>
        <mxCell id="MoJu4bdm5zdiFwNMEZ7Q-46" value="&lt;font style=&quot;font-size: 10px ; line-height: 0%&quot;&gt;&lt;span class=&quot;sqlkeywordcolor&quot; style=&quot;box-sizing: inherit ; color: mediumblue ; font-family: &amp;#34;consolas&amp;#34; , &amp;#34;menlo&amp;#34; , &amp;#34;courier new&amp;#34; , monospace ; font-size: 10px&quot;&gt;INSERT&lt;/span&gt;&lt;span style=&quot;font-family: &amp;#34;consolas&amp;#34; , &amp;#34;menlo&amp;#34; , &amp;#34;courier new&amp;#34; , monospace ; font-size: 10px&quot;&gt;&amp;nbsp;&lt;/span&gt;&lt;span class=&quot;sqlkeywordcolor&quot; style=&quot;box-sizing: inherit ; color: mediumblue ; font-family: &amp;#34;consolas&amp;#34; , &amp;#34;menlo&amp;#34; , &amp;#34;courier new&amp;#34; , monospace ; font-size: 10px&quot;&gt;INTO&lt;/span&gt;&lt;span style=&quot;font-family: &amp;#34;consolas&amp;#34; , &amp;#34;menlo&amp;#34; , &amp;#34;courier new&amp;#34; , monospace ; font-size: 10px&quot;&gt;&amp;nbsp;eventos (dataEvento, idade, qtdParticipantes)&lt;/span&gt;&lt;br style=&quot;box-sizing: inherit ; font-family: &amp;#34;consolas&amp;#34; , &amp;#34;menlo&amp;#34; , &amp;#34;courier new&amp;#34; , monospace ; font-size: 10px&quot;&gt;&lt;span class=&quot;sqlkeywordcolor&quot; style=&quot;box-sizing: inherit ; color: mediumblue ; font-family: &amp;#34;consolas&amp;#34; , &amp;#34;menlo&amp;#34; , &amp;#34;courier new&amp;#34; , monospace ; font-size: 10px&quot;&gt;VALUES&lt;/span&gt;&lt;span style=&quot;font-family: &amp;#34;consolas&amp;#34; , &amp;#34;menlo&amp;#34; , &amp;#34;courier new&amp;#34; , monospace ; font-size: 10px&quot;&gt;&amp;nbsp;(&lt;font color=&quot;#a52a2a&quot;&gt;{dataEvento}, {idade}, {qtdParticipantes}&lt;/font&gt;&lt;/span&gt;&lt;span style=&quot;font-family: &amp;#34;consolas&amp;#34; , &amp;#34;menlo&amp;#34; , &amp;#34;courier new&amp;#34; , monospace ; font-size: 10px&quot;&gt;);&lt;/span&gt;&lt;/font&gt;" style="strokeWidth=2;html=1;shape=mxgraph.flowchart.database;whiteSpace=wrap;rounded=0;shadow=1;glass=0;sketch=0;fillColor=#FFFF99;gradientColor=#ffffff;gradientDirection=east;opacity=90;spacing=0;align=center;verticalAlign=middle;labelPosition=center;verticalLabelPosition=middle;fontSize=10;horizontal=1;spacingTop=30;" vertex="1" parent="fQxyEo8xfnAtOBqPwO7P-1">
          <mxGeometry x="1625" y="-1454" width="223" height="109" as="geometry" />
        </mxCell>
        <mxCell id="MoJu4bdm5zdiFwNMEZ7Q-48" value="Fim" style="ellipse;whiteSpace=wrap;html=1;rounded=0;shadow=1;fontSize=12;strokeWidth=2;fillColor=#FFFF99;gradientColor=#ffffff;gradientDirection=east;glass=0;opacity=90;spacing=0;spacingTop=0;sketch=0;" vertex="1" parent="fQxyEo8xfnAtOBqPwO7P-1">
          <mxGeometry x="1979.5" y="-1429.5" width="120" height="60" as="geometry" />
        </mxCell>
      </root>
    </mxGraphModel>
  </diagram>
</mxfile>
